<svg width="193" height="193" viewBox="0 0 193 193" fill="none" xmlns="http://www.w3.org/2000/svg">
<path d="M137.541 149.666C114.807 160.13 101.205 175.877 95.3227 185.508C94.784 186.391 95.8972 187.163 96.6827 186.48C120.571 165.718 145.387 176.41 166.713 165.41C182.434 157.299 190.21 125.701 192.946 105.325C193.092 104.239 191.34 103.833 190.874 104.829C182.862 121.921 166.935 136.136 137.541 149.666Z" fill="#977118"/>
<path d="M56.368 155.335C79.1023 165.8 92.7044 181.547 98.5862 191.177C99.125 192.061 98.0117 192.832 97.2262 192.149C73.3382 171.387 48.5225 182.08 27.1972 171.08C11.475 162.969 3.69914 131.371 0.963081 110.994C0.817095 109.908 2.56893 109.502 3.03514 110.498C11.0465 127.591 26.974 141.805 56.368 155.335Z" fill="#977118"/>
<path d="M135.638 138.547C114.552 146.018 103.065 161.804 97.9975 173.223C97.5483 174.236 95.6495 173.881 95.7974 172.786C99.739 143.534 123.192 119.357 144.884 114.476C159.902 111.097 168.552 101.568 172.525 94.49C173.035 93.5799 174.666 93.9091 174.561 94.9428C173.221 108.19 164.829 128.205 135.638 138.547Z" fill="#977118"/>
<path d="M56.2456 146.414C77.3326 153.885 88.8202 169.67 93.8864 181.09C94.3357 182.103 96.2344 181.747 96.0875 180.653C92.1449 151.401 68.693 127.223 47.0004 122.344C31.9818 118.965 23.3319 109.436 19.3601 102.357C18.8487 101.446 17.2184 101.777 17.3229 102.809C18.6632 116.058 27.0559 136.072 56.2456 146.414Z" fill="#977118"/>
<path d="M90.7877 128.584C85.5058 118.682 51.4177 64.2435 45.8674 69.1216C40.3171 74.0005 39.2895 85.3518 44.2304 100.206C49.9211 117.312 89.0717 145.069 93.3269 145.71C97.5822 146.352 97.7724 141.68 90.7877 128.584Z" fill="#977118"/>
<path d="M91.8671 88.4593C87.6675 80.5863 60.5649 37.3047 56.1524 41.1832C51.7399 45.0625 50.9233 54.0873 54.8517 65.8969C59.3754 79.4982 90.5034 101.566 93.8865 102.076C97.2686 102.585 97.4203 98.871 91.8671 88.4593Z" fill="#977118"/>
<path d="M92.9191 56.6914C89.7753 50.7963 69.4842 18.392 66.1802 21.2958C62.8762 24.2005 62.2649 30.9569 65.2063 39.7991C68.5932 49.982 91.8982 66.5037 94.4308 66.8854C96.9634 67.2672 97.0764 64.4861 92.9191 56.6914Z" fill="#977118"/>
<path d="M93.8789 33.8431C91.6986 29.7544 77.6246 7.27866 75.3331 9.29294C73.0416 11.3074 72.6177 15.9936 74.6578 22.1266C77.0067 29.1892 93.1707 40.6493 94.9281 40.9139C96.6847 41.1776 96.7629 39.2495 93.8789 33.8431Z" fill="#977118"/>
<path d="M94.7002 18.4243C93.3439 15.8802 84.5857 1.89399 83.1598 3.14743C81.7338 4.40078 81.4701 7.31689 82.7397 11.1331C84.2014 15.5279 94.2594 22.6596 95.3529 22.8237C96.4464 22.9888 96.4953 21.7882 94.7002 18.4243Z" fill="#977118"/>
<path d="M101.319 118.244C106.6 108.341 140.69 53.9029 146.24 58.7818C151.79 63.6598 152.817 75.0111 147.876 89.8656C142.186 106.973 103.035 134.729 98.7794 135.37C94.5251 136.011 94.3348 131.339 101.319 118.244Z" fill="#977118"/>
<path d="M100.24 80.2377C104.439 72.3647 131.541 29.0831 135.954 32.9615C140.367 36.8409 141.184 45.8657 137.255 57.6753C132.732 71.2766 101.604 93.3448 98.2207 93.8547C94.8376 94.3637 94.6869 90.6494 100.24 80.2377Z" fill="#977118"/>
<path d="M99.1871 50.5344C102.332 44.6393 122.623 12.2351 125.926 15.1397C129.23 18.0435 129.841 24.7999 126.901 33.6421C123.514 43.8251 100.209 60.3467 97.6764 60.7284C95.1437 61.1102 95.0298 58.3291 99.1871 50.5344Z" fill="#977118"/>
<path d="M98.2274 29.5746C100.408 25.4859 114.482 3.01026 116.773 5.02454C119.065 7.03872 119.49 11.7251 117.45 17.8581C115.1 24.9207 98.9357 36.3808 97.1792 36.6454C95.4226 36.9101 95.3435 34.981 98.2274 29.5746Z" fill="#977118"/>
<path d="M97.4061 15.7668C98.7633 13.2226 107.521 -0.763351 108.946 0.489995C110.372 1.74343 110.636 4.65955 109.367 8.47583C107.906 12.8704 97.8469 20.0021 96.7534 20.1662C95.6608 20.3313 95.6118 19.1307 97.4061 15.7668Z" fill="#977118"/>
</svg>
